<?xml version="1.0" encoding="UTF-8"?>
<!-- Generator: visioncortex VTracer 0.6.4 -->
<svg version="1.1" xmlns="http://www.w3.org/2000/svg" width="1024" height="559">
<path d="M0 0 C4.14881755 3.20731531 6.61579988 6.95620164 7.48046875 12.125 C7.87937564 18.23457399 6.10198693 22.41163268 2.12890625 27.0234375 C-0.89021039 29.32371684 -2.07911229 30.0234375 -5.87109375 30.0234375 C-5.87109375 56.4234375 -5.87109375 82.8234375 -5.87109375 110.0234375 C-9.47852987 111.22591621 -12.75354655 111.14751875 -16.5065918 111.12109375 C-17.67372711 111.11890335 -17.67372711 111.11890335 -18.86444092 111.1166687 C-20.56025002 111.1128581 -22.25605511 111.10673673 -23.95184898 111.09860229 C-26.67028467 111.08576048 -29.38867094 111.07929882 -32.10713196 111.07446289 C-38.88675436 111.06112465 -45.66633239 111.03742483 -52.44592285 111.01306152 C-82.20235925 110.8950591 -82.20235925 110.8950591 -111.953125 111.3984375 C-113.84825081 111.4447229 -113.84825081 111.4447229 -115.78166199 111.49194336 C-141.30743744 112.3308662 -162.61426967 121.01063945 -180.51953125 139.359375 C-191.85461953 152.20078731 -198.2172248 168.31967413 -200.87109375 185.0234375 C-200.1028125 185.2915625 -199.33453125 185.5596875 -198.54296875 185.8359375 C-194.35522469 187.69715708 -191.92604553 190.91353395 -189.87109375 195.0234375 C-189.34723615 200.27918915 -189.20604003 204.66869845 -191.55859375 209.4609375 C-195.94154893 214.31772568 -198.94674907 216.66435837 -205.52734375 217.125 C-210.49389888 216.90978261 -214.37806624 215.20214343 -218.24609375 212.1484375 C-222.25635222 206.90425335 -222.70798029 201.46023151 -221.87109375 195.0234375 C-219.66573906 190.61272811 -216.9487864 187.77588004 -212.87109375 185.0234375 C-211.55109375 184.6934375 -210.23109375 184.3634375 -208.87109375 184.0234375 C-208.87109375 157.6234375 -208.87109375 131.2234375 -208.87109375 104.0234375 C-201.34425781 103.98605469 -193.81742188 103.94867188 -186.0625 103.91015625 C-181.26364998 103.87984226 -176.46483552 103.8486719 -171.66601562 103.81445312 C-164.06699527 103.76034749 -156.46804523 103.70922988 -148.86889648 103.67700195 C-142.73496193 103.65078822 -136.60126666 103.61026084 -130.46748161 103.56025124 C-128.13984109 103.54370381 -125.8121593 103.53211474 -123.48446846 103.52582359 C-91.35898526 103.43030161 -63.34002303 96.93756654 -39.55859375 74.0859375 C-30.03265849 64.16498738 -15.87109375 44.57852086 -15.87109375 30.0234375 C-17.26328125 29.12625 -17.26328125 29.12625 -18.68359375 28.2109375 C-23.08556867 25.18997432 -24.44480357 22.79418133 -25.68359375 17.6484375 C-25.98492407 11.82271805 -24.71014078 7.76083177 -21.12109375 3.2109375 C-15.63051018 -2.66240309 -7.2110867 -3.76361519 0 0 Z M-16.93359375 7.5859375 C-19.19847961 11.60428337 -19.68078206 13.48918294 -18.87109375 18.0234375 C-16.55906865 21.69547736 -15.0416842 23.60003244 -10.93359375 25.0859375 C-7.08661356 25.0074277 -5.06701389 24.15405092 -1.87109375 22.0234375 C0.72738646 19.00584758 1.12890625 17.52755134 1.12890625 13.5234375 C-0.10290825 9.21208675 -1.16889867 7.56869662 -4.87109375 5.0234375 C-9.95015204 3.80888008 -12.90051042 4.21131676 -16.93359375 7.5859375 Z M-13.87109375 45.0234375 C-14.33257812 46.01601562 -14.7940625 47.00859375 -15.26953125 48.03125 C-26.8235274 72.3220296 -43.23155664 88.92303635 -67.5703125 100.4296875 C-70.90394038 101.94585815 -70.90394038 101.94585815 -73.87109375 104.0234375 C-53.74109375 104.0234375 -33.61109375 104.0234375 -12.87109375 104.0234375 C-12.87109375 84.5534375 -12.87109375 65.0834375 -12.87109375 45.0234375 C-13.20109375 45.0234375 -13.53109375 45.0234375 -13.87109375 45.0234375 Z M-202.87109375 111.0234375 C-202.9644308 112.61954732 -202.98854747 114.21977178 -202.98461914 115.81860352 C-202.98454361 116.83958633 -202.98446808 117.86056915 -202.98439026 118.91249084 C-202.97922897 120.0228923 -202.97406769 121.13329376 -202.96875 122.27734375 C-202.96733505 123.40792709 -202.9659201 124.53851044 -202.96446228 125.70335388 C-202.95884394 129.33090815 -202.94628833 132.95840174 -202.93359375 136.5859375 C-202.92858111 139.03841057 -202.9240178 141.4908846 -202.91992188 143.94335938 C-202.90886855 149.97007295 -202.89211259 155.99675089 -202.87109375 162.0234375 C-200.14187062 159.43904177 -198.85515689 157.09242587 -197.30859375 153.6484375 C-188.04061209 134.65252472 -171.58175826 119.6310624 -151.87109375 112.0234375 C-151.87109375 111.6934375 -151.87109375 111.3634375 -151.87109375 111.0234375 C-158.97340158 110.85561863 -166.07585452 110.69565386 -173.1784668 110.54125977 C-175.59680223 110.48775029 -178.01509795 110.43241437 -180.43334961 110.37524414 C-183.90079174 110.29358208 -187.36832169 110.2183988 -190.8359375 110.14453125 C-191.92446518 110.11749619 -193.01299286 110.09046112 -194.13450623 110.06260681 C-195.13546829 110.04251053 -196.13643036 110.02241425 -197.16772461 110.00170898 C-198.05374863 109.98172348 -198.93977264 109.96173798 -199.85264587 109.94114685 C-201.8685264 109.79496496 -201.8685264 109.79496496 -202.87109375 111.0234375 Z M-213.87109375 194.0234375 C-216.22729812 197.55774406 -216.36100988 198.85915037 -215.87109375 203.0234375 C-213.59521145 207.24825496 -213.59521145 207.24825496 -209.87109375 210.0234375 C-206.78845995 210.50188165 -203.94674613 210.57493379 -200.87109375 210.0234375 C-197.27162035 207.01163323 -196.07025227 205.13872519 -195.24609375 200.5234375 C-196.05731633 195.98059104 -197.44078608 194.08881882 -200.87109375 191.0234375 C-206.60385099 189.1472624 -209.32546925 190.21779839 -213.87109375 194.0234375 Z " fill="#000000" transform="translate(237.87109375,171.9765625)"/>
<path d="M0 0 C1.02276634 7.61688969 0.9667841 14.96325842 0.5625 22.625 C0.2840625 28.255625 0.2840625 28.255625 0 34 C8.91 34 17.82 34 27 34 C27 39.94 27 45.88 27 52 C18.42 52.33 9.84 52.66 1 53 C1.08548376 63.10098353 1.1792246 73.20179756 1.28752708 83.30256271 C1.33748498 87.99269398 1.38381511 92.68280277 1.421875 97.37304688 C1.45873415 101.89891243 1.50509589 106.42458979 1.55806351 110.95029449 C1.57660409 112.6774287 1.59171331 114.40460324 1.60334396 116.13179779 C1.62021218 118.54997554 1.64924834 120.96772258 1.68115234 123.38574219 C1.68331253 124.10071869 1.68547272 124.81569519 1.68769836 125.55233765 C1.74873188 129.17057619 1.87447804 131.99785787 4 135 C7.13117567 137.08745045 8.06946224 137.27653996 11.66796875 137.4140625 C13.00698242 137.47207031 13.00698242 137.47207031 14.37304688 137.53125 C15.76620117 137.57765625 15.76620117 137.57765625 17.1875 137.625 C18.12787109 137.66367187 19.06824219 137.70234375 20.03710938 137.7421875 C22.35775066 137.83642674 24.67884841 137.91930123 27 138 C27 144.27 27 150.54 27 157 C-6.34280118 157.508619 -6.34280118 157.508619 -14 151 C-14.721875 150.401875 -15.44375 149.80375 -16.1875 149.1875 C-22.01777146 142.15096548 -22.15637952 133.4977937 -22.11352539 124.76977539 C-22.11367142 123.97871399 -22.11381744 123.18765259 -22.1139679 122.37261963 C-22.11327616 119.78093641 -22.10551863 117.18932678 -22.09765625 114.59765625 C-22.09578944 112.79162129 -22.09436678 110.98558582 -22.09336853 109.17955017 C-22.08956404 104.4432941 -22.07975154 99.70706907 -22.06866455 94.9708252 C-22.05840583 90.13094502 -22.05386138 85.2910598 -22.04882812 80.45117188 C-22.0381273 70.96743214 -22.02054738 61.48372352 -22 52 C-28.6 52 -35.2 52 -42 52 C-42.020625 49.215625 -42.04125 46.43125 -42.0625 43.5625 C-42.071604 42.68408447 -42.08070801 41.80566895 -42.09008789 40.90063477 C-42.09723091 38.93354026 -42.05031893 36.96646379 -42 35 C-41 34 -41 34 -39.14233398 33.88647461 C-37.95619507 33.89432983 -37.95619507 33.89432983 -36.74609375 33.90234375 C-35.9770874 33.90484131 -35.20808105 33.90733887 -34.41577148 33.90991211 C-33.43294189 33.91901611 -32.4501123 33.92812012 -31.4375 33.9375 C-26.7659375 33.9684375 -26.7659375 33.9684375 -22 34 C-22 23.11 -22 12.22 -22 1 C-18.555625 0.835 -15.11125 0.67 -11.5625 0.5 C-10.47525635 0.44779297 -9.3880127 0.39558594 -8.26782227 0.34179688 C-6.99249634 0.28088867 -6.99249634 0.28088867 -5.69140625 0.21875 C-4.81685791 0.17685547 -3.94230957 0.13496094 -3.04125977 0.09179688 C-1 0 -1 0 0 0 Z " fill="#000000" transform="translate(439,190)"/>
<path d="M0 0 C7.26 0 14.52 0 22 0 C22 10.89 22 21.78 22 33 C30.91 33 39.82 33 49 33 C49 38.94 49 44.88 49 51 C40.42 51.33 31.84 51.66 23 52 C22.95468441 61.10181002 22.91804672 70.20354422 22.89637566 79.30544186 C22.88597084 83.53252822 22.87187246 87.7595329 22.84912109 91.98657227 C22.8272743 96.07145037 22.81540658 100.15625027 22.81024551 104.24118233 C22.80657089 105.79397372 22.79939567 107.34676118 22.78853989 108.89951897 C21.93912618 122.02136454 21.93912618 122.02136454 26.44845581 133.66636658 C29.07607253 135.92494065 30.97143749 136.15866708 34.3515625 136.31640625 C35.11807129 136.35451416 35.88458008 136.39262207 36.67431641 136.43188477 C37.64804199 136.47498779 38.62176758 136.51809082 39.625 136.5625 C42.71875 136.706875 45.8125 136.85125 49 137 C49 143.27 49 149.54 49 156 C15.48708788 156.51121391 15.48708788 156.51121391 7.6875 149.9140625 C1.46022399 142.85071703 -0.1565139 135.03472222 -0.11352539 125.92675781 C-0.11367142 125.11662735 -0.11381744 124.30649689 -0.1139679 123.47181702 C-0.11327224 120.79889227 -0.10549606 118.12603755 -0.09765625 115.453125 C-0.09579084 113.59796181 -0.09436752 111.74279813 -0.09336853 109.88763428 C-0.08955305 105.00830726 -0.07973102 100.12901007 -0.06866455 95.24969482 C-0.05842961 90.2693319 -0.05386644 85.28896416 -0.04882812 80.30859375 C-0.03810789 70.53904729 -0.02051892 60.7695308 0 51 C-6.27 51 -12.54 51 -19 51 C-19 45.06 -19 39.12 -19 33 C-12.73 33 -6.46 33 0 33 C0 22.11 0 11.22 0 0 Z " fill="#000000" transform="translate(610,191)"/>
<path d="M0 0 C8.84234577 6.20538509 13.85893784 13.36632345 17 23.75 C17.495 27.71 17.495 27.71 18 31.75 C10.41 31.75 2.82 31.75 -5 31.75 C-6.32 28.45 -7.64 25.15 -9 21.75 C-12.30743526 16.50372339 -16.64443383 13.72066144 -22.51171875 12.0234375 C-33.61663349 9.64720753 -45.08815147 10.9769319 -55 16.75 C-57.71759709 22.32107403 -57.99390775 28.62628993 -56.125 34.5 C-48.88304403 42.16795338 -37.57964684 43.39848707 -27.6875 45.25 C6.26655024 51.65265395 6.26655024 51.65265395 15.78125 65.5546875 C20.54336024 74.13259121 21.32051958 83.39433828 18.875 92.8125 C15.77582235 102.03762226 10.03909389 109.54800309 1.4140625 114.12109375 C-18.29797488 123.02586131 -40.14933298 123.06708847 -60.3125 115.625 C-70.25706035 111.14124802 -77.44234033 103.60236662 -82 93.75 C-83.80778041 88.9727856 -85 84.87828614 -85 79.75 C-77.41 79.42 -69.82 79.09 -62 78.75 C-61.34 80.750625 -60.68 82.75125 -60 84.8125 C-57.51197175 91.18157511 -55.05959488 95.39809785 -49 98.75 C-37.25483183 103.41104811 -24.37038179 103.13034649 -12.75 98.4375 C-9.11019564 96.20398369 -6.90279972 93.55559944 -5 89.75 C-4.4745872 84.96099148 -4.51660282 80.91454775 -6.375 76.4375 C-13.89791668 68.73546625 -24.58961217 67.22470907 -34.75 65.25 C-50.33128637 62.19030845 -65.01265732 59.21036071 -76.375 47.25 C-81.1455355 39.91071462 -82.71455918 32.23685754 -81.75 23.48046875 C-79.79674116 14.63848455 -75.10532675 6.17499086 -67.51953125 1.0859375 C-47.77033037 -10.22319587 -19.88075357 -11.74039096 0 0 Z " fill="#000000" transform="translate(372,229.25)"/>
<path d="M0 0 C9.59397488 9.59397488 12.83417034 21.23905954 12.90771484 34.5871582 C12.91279556 35.24347733 12.91787628 35.89979645 12.92311096 36.57600403 C12.93375821 37.9934846 12.9424002 39.41098139 12.94923019 40.82848549 C12.96114122 43.08945186 12.98062977 45.35023744 13.00234985 47.61112976 C13.06351376 54.03732045 13.11763239 60.46349458 13.15136719 66.88989258 C13.17261093 70.83276076 13.20814968 74.77530036 13.25212479 78.71797752 C13.26606278 80.20270033 13.27495554 81.68748128 13.27817917 83.17226601 C13.3042421 94.03958591 14.64346887 104.0721749 16.75 114.75 C9.49 114.75 2.23 114.75 -5.25 114.75 C-7.9196773 107.63086054 -8.61438449 105.55184379 -8.25 98.75 C-8.91 99.430625 -9.57 100.11125 -10.25 100.8125 C-11.246573 101.79515438 -12.24699841 102.77390821 -13.25 103.75 C-13.81976562 104.31589844 -14.38953125 104.88179688 -14.9765625 105.46484375 C-25.60707826 115.46102833 -38.58970487 118.27100917 -52.8515625 118 C-65.83540292 117.04486691 -77.5028659 113.59694304 -86.55859375 103.9375 C-93.45823869 95.01417167 -94.16087757 84.62694978 -93.25 73.75 C-90.86580621 63.71312565 -85.55087431 57.80932434 -77.04296875 52.328125 C-63.59225775 44.90388247 -47.98644202 42.82058634 -33.02246094 40.53710938 C-25.59674422 39.39110549 -18.44454378 37.92785803 -11.25 35.75 C-11.5286682 26.60968318 -11.97145508 19.27303321 -18.4375 12.4375 C-27.37053972 7.07767617 -36.96309985 6.48824145 -47.16015625 8.25390625 C-53.67915885 9.97460829 -57.82559627 12.63290949 -62 18 C-63.47135423 21.23697931 -64.16280608 24.37574449 -64.8203125 27.859375 C-65.25 29.75 -65.25 29.75 -66.25 30.75 C-67.88472882 30.83700342 -69.52314055 30.85701063 -71.16015625 30.84765625 C-72.14951172 30.84443359 -73.13886719 30.84121094 -74.15820312 30.83789062 C-75.19912109 30.82951172 -76.24003906 30.82113281 -77.3125 30.8125 C-78.35728516 30.80798828 -79.40207031 30.80347656 -80.47851562 30.79882812 C-83.0690666 30.78699913 -85.65950559 30.77051689 -88.25 30.75 C-90.18950985 24.93147045 -87.45917702 18.45036657 -85.02734375 13.01953125 C-78.60939008 1.48866741 -68.50317436 -5.14787971 -56.125 -9.0625 C-37.06717504 -13.39382385 -16.17289368 -11.1966187 0 0 Z M-16.875 53.921875 C-18.04893311 54.17195313 -19.22286621 54.42203125 -20.43237305 54.6796875 C-25.54090026 55.77738216 -30.64687215 56.88668406 -35.75244141 57.99804688 C-38.68936249 58.62946646 -41.62912394 59.23643765 -44.57421875 59.828125 C-53.69679889 61.7138967 -62.24724919 63.8998918 -67.8125 72 C-70.44922165 77.4548691 -70.02731533 83.37232956 -68.1875 89 C-64.23085847 94.61587831 -59.94907758 98.00486214 -53.25 99.75 C-50.61607747 99.96214648 -48.12873228 100.08451092 -45.5 100.0625 C-44.79552734 100.05686035 -44.09105469 100.0512207 -43.36523438 100.04541016 C-33.72782465 99.82236286 -26.27428073 97.47280945 -19.25 90.75 C-11.36550715 81.81424143 -10.0737004 73.50006695 -10.1875 61.875 C-10.19201172 60.99585938 -10.19652344 60.11671875 -10.20117188 59.2109375 C-10.21287663 57.05726197 -10.23080931 54.90362183 -10.25 52.75 C-12.4602553 52.75 -14.73099393 53.46477395 -16.875 53.921875 Z " fill="#000000" transform="translate(568.25,232.25)"/>
<path d="M0 0 C1.59448975 0.00737183 1.59448975 0.00737183 3.22119141 0.01489258 C17.22052375 0.22439909 29.91330966 3.52686843 40.37109375 13.30859375 C46.76548072 20.36304647 51.1875 29.67124532 51.1875 39.3125 C43.5975 39.3125 36.0075 39.3125 28.1875 39.3125 C27.1975 36.3425 26.2075 33.3725 25.1875 30.3125 C20.81017912 23.86811092 15.68049375 20.69764694 8.25 18.9375 C3.34721589 18.17695731 -1.22477393 18.39134129 -6.125 18.9375 C-6.7945874 19.00662598 -7.4641748 19.07575195 -8.15405273 19.14697266 C-12.94249147 19.79975172 -15.9415869 21.51080514 -19.8125 24.3125 C-20.4725 24.3125 -21.1325 24.3125 -21.8125 24.3125 C-24.37386502 29.11505941 -24.46769304 34.0113927 -23.8125 39.3125 C-21.58752313 44.53635873 -18.70364396 46.17758693 -13.73999023 48.29980469 C-6.84911952 50.6835368 0.45335823 51.79600851 7.60205078 53.16430664 C23.12352117 56.16329281 39.29043315 59.76359491 48.99609375 73.28515625 C53.76528791 81.40060467 53.23536829 91.1699878 52.1875 100.3125 C49.78908619 108.94861359 44.61002722 115.38705755 37.1875 120.3125 C19.47633013 130.03328576 -1.68449689 130.53307101 -20.8125 125.3125 C-32.41890079 121.75952016 -41.21794362 115.01467193 -47.62890625 104.64453125 C-50.53170363 98.9251582 -51.8125 93.71299593 -51.8125 87.3125 C-44.2225 86.9825 -36.6325 86.6525 -28.8125 86.3125 C-27.39648438 90.36523438 -27.39648438 90.36523438 -25.98046875 94.41796875 C-23.75646338 99.92963423 -21.30139084 103.77415918 -15.8125 106.3125 C-3.71181808 110.56409094 8.53281029 110.80766315 20.4375 106 C24.49732035 103.5087466 26.68484684 100.82045948 28.1875 96.3125 C28.70929972 91.82160075 28.58616442 88.25479772 26.8125 84.0625 C19.22930183 76.11819715 8.20694339 74.74632965 -2.125 72.8125 C-18.32693294 69.75733075 -34.66684899 66.51641142 -44.8125 52.3125 C-49.35041446 43.07460271 -50.07476598 34.58100656 -46.84375 24.828125 C-42.7773966 14.90868717 -35.64971271 8.1548476 -25.8125 4 C-17.31462344 0.73953 -9.04598409 -0.04921723 0 0 Z " fill="#000000" transform="translate(718.8125,221.6875)"/>
<path d="M0 0 C15.40644932 10.78451452 21.34849288 25.67996439 24.9375 43.625 C24.9375 49.565 24.9375 55.505 24.9375 61.625 C-6.0825 61.955 -37.1025 62.285 -69.0625 62.625 C-67.11326753 74.32039482 -65.00771382 85.04386397 -55.4375 92.75 C-45.58083801 99.59740686 -35.84441665 101.04954351 -24.0625 99.625 C-20.4144884 98.72561601 -17.33124523 97.46008504 -14.0625 95.625 C-12.99 95.0475 -11.9175 94.47 -10.8125 93.875 C-5.98493886 89.92517725 -2.8360264 85.1720528 -0.0625 79.625 C7.5275 79.625 15.1175 79.625 22.9375 79.625 C20.86133504 92.08198975 13.82098023 101.10266269 4.0625 108.9375 C-10.81600464 119.30559182 -28.60836705 121.32958582 -46.25 118.9375 C-56.10502986 117.04077151 -64.41244958 113.04897011 -72.0625 106.625 C-73.073125 105.8825 -74.08375 105.14 -75.125 104.375 C-85.78284744 95.28107582 -91.64008685 80.24295539 -93.0625 66.625 C-94.49447185 46.34252038 -92.57255408 26.32643461 -78.75 10.3125 C-58.20687665 -11.05234828 -25.55509338 -15.31922377 0 0 Z M-61.3125 21.9375 C-67.01775001 29.026312 -68.13885656 35.38856559 -69.0625 44.625 C-45.9625 44.625 -22.8625 44.625 0.9375 44.625 C-0.21640502 33.08594984 -3.03171252 23.41128678 -12.203125 15.86328125 C-28.36764795 4.50962822 -48.32568387 7.9091347 -61.3125 21.9375 Z " fill="#000000" transform="translate(876.0625,230.375)"/>
<path d="M0 0 C31.02 0 62.04 0 94 0 C94 21.66143345 94 21.66143345 86.89916992 29.29833984 C86.38974854 29.76449707 85.88032715 30.2306543 85.35546875 30.7109375 C82.0291371 33.89380269 79.26952928 37.33201166 76.5 41 C72.80044028 45.7898649 68.9678238 50.43027589 65 55 C60.52737924 60.15196976 56.260706 65.42418584 52.07861328 70.8137207 C48.93374982 74.85153513 45.69500731 78.79261972 42.375 82.6875 C41.92181396 83.21931885 41.46862793 83.7511377 41.00170898 84.29907227 C40.3318396 85.08495728 40.3318396 85.08495728 39.6484375 85.88671875 C37.07543788 88.90551647 34.5284717 91.94374052 32 95 C30.948125 96.2684375 30.948125 96.2684375 29.875 97.5625 C27.67116633 100.33079426 27.67116633 100.33079426 25 105 C60.145 104.505 60.145 104.505 96 104 C96 110.27 96 116.54 96 123 C63.33 123 30.66 123 -3 123 C-4.11807204 103.99277531 -4.11807204 103.99277531 2.078125 96.48046875 C3.15320313 95.34544922 3.15320313 95.34544922 4.25 94.1875 C7.90098675 90.23472991 11.3098299 86.18438569 14.640625 81.9609375 C17.69667391 78.12569731 20.81590185 74.34445211 23.9375 70.5625 C25.16406351 69.07552167 26.39062603 67.58854251 27.6171875 66.1015625 C28.20081055 65.39418945 28.78443359 64.68681641 29.38574219 63.95800781 C33.96584327 58.4025918 38.52264272 52.82831211 43.05078125 47.23046875 C44.15867597 45.8618349 45.26675242 44.49334814 46.375 43.125 C46.92325439 42.44800049 47.47150879 41.77100098 48.03637695 41.07348633 C52.17259298 35.9815883 56.38221886 30.95702243 60.66162109 25.98486328 C63.0874862 23.16946839 63.0874862 23.16946839 65 20 C43.55 19.67 22.1 19.34 0 19 C0 12.73 0 6.46 0 0 Z " fill="#000000" transform="translate(912,224)"/>
</svg>
